<svg width="141" height="24" viewBox="0 0 141 24" fill="none" xmlns="http://www.w3.org/2000/svg">
<path d="M0.116821 4.11437V0.127274H18.9019V4.11437H11.8994V23H7.11936V4.11437H0.116821Z" fill="#4B5563"/>
<path d="M27.2363 23.3351C25.4717 23.3351 23.9528 22.9777 22.6796 22.2629C21.4139 21.5407 20.4385 20.5206 19.7535 19.2028C19.0685 17.8775 18.726 16.3102 18.726 14.5009C18.726 12.7363 19.0685 11.1876 19.7535 9.85488C20.4385 8.52213 21.4027 7.48348 22.6461 6.73892C23.897 5.99437 25.3637 5.62209 27.0464 5.62209C28.1782 5.62209 29.2317 5.80451 30.2071 6.16934C31.1899 6.52672 32.0461 7.06653 32.7758 7.78874C33.5129 8.51096 34.0862 9.41932 34.4957 10.5138C34.9052 11.6009 35.11 12.8741 35.11 14.3334V15.6401H20.6247V12.6916H30.6315C30.6315 12.0066 30.4826 11.3998 30.1847 10.8712C29.8869 10.3426 29.4737 9.92934 28.9451 9.63152C28.4239 9.32625 27.8171 9.17362 27.1246 9.17362C26.4024 9.17362 25.7621 9.34114 25.2037 9.67619C24.6527 10.0038 24.2209 10.4468 23.9081 11.0052C23.5954 11.5562 23.4354 12.1704 23.4279 12.848V15.6512C23.4279 16.5 23.5843 17.2334 23.897 17.8514C24.2171 18.4694 24.6676 18.9459 25.2483 19.281C25.8291 19.616 26.5178 19.7835 27.3145 19.7835C27.8431 19.7835 28.3271 19.7091 28.7664 19.5602C29.2057 19.4112 29.5817 19.1879 29.8944 18.8901C30.2071 18.5922 30.4453 18.2274 30.6091 17.7956L35.0095 18.0859C34.7861 19.1432 34.3282 20.0665 33.6358 20.8557C32.9508 21.6375 32.0647 22.248 30.9777 22.6873C29.8981 23.1191 28.651 23.3351 27.2363 23.3351Z" fill="#4B5563"/>
<path d="M43.1065 23.3239C42.012 23.3239 41.0366 23.134 40.1804 22.7543C39.3242 22.3671 38.6466 21.7975 38.1478 21.0455C37.6563 20.2861 37.4106 19.3405 37.4106 18.2088C37.4106 17.2558 37.5856 16.4554 37.9356 15.8076C38.2855 15.1598 38.762 14.6387 39.3651 14.244C39.9682 13.8494 40.6532 13.5516 41.4201 13.3506C42.1944 13.1495 43.006 13.0081 43.8548 12.9262C44.8525 12.8219 45.6566 12.7251 46.2671 12.6358C46.8777 12.539 47.3207 12.3975 47.5962 12.2114C47.8716 12.0253 48.0094 11.7498 48.0094 11.3849V11.3179C48.0094 10.6106 47.786 10.0634 47.3393 9.67619C46.9 9.28902 46.2746 9.09544 45.463 9.09544C44.6068 9.09544 43.9255 9.2853 43.4192 9.66502C42.9129 10.0373 42.5779 10.5064 42.4141 11.0722L38.0137 10.7148C38.2371 9.67247 38.6764 8.77156 39.3316 8.01211C39.9868 7.24522 40.8319 6.65702 41.8668 6.24751C42.9092 5.83056 44.1154 5.62209 45.4853 5.62209C46.4384 5.62209 47.3505 5.73377 48.2216 5.95714C49.1002 6.18051 49.8782 6.52672 50.5558 6.99579C51.2408 7.46486 51.7806 8.06795 52.1752 8.80506C52.5698 9.53473 52.7671 10.4096 52.7671 11.4296V23H48.2551V20.6211H48.1211C47.8456 21.1572 47.477 21.63 47.0154 22.0395C46.5538 22.4416 45.9991 22.758 45.3513 22.9888C44.7036 23.2122 43.9553 23.3239 43.1065 23.3239ZM44.469 20.0404C45.1689 20.0404 45.7869 19.9027 46.323 19.6272C46.859 19.3442 47.2797 18.9645 47.585 18.488C47.8903 18.0115 48.0429 17.4717 48.0429 16.8686V15.0482C47.894 15.1449 47.6892 15.2343 47.4286 15.3162C47.1755 15.3907 46.8888 15.4614 46.5687 15.5284C46.2485 15.588 45.9284 15.6438 45.6082 15.6959C45.288 15.7406 44.9977 15.7815 44.7371 15.8188C44.1787 15.9007 43.691 16.031 43.274 16.2097C42.8571 16.3884 42.5332 16.6303 42.3024 16.9356C42.0716 17.2334 41.9562 17.6057 41.9562 18.0524C41.9562 18.7002 42.1907 19.1953 42.6598 19.5378C43.1363 19.8729 43.7394 20.0404 44.469 20.0404Z" fill="#4B5563"/>
<path d="M56.4582 23V5.84546H60.9926V8.87207H61.1936C61.551 7.86692 62.1466 7.07397 62.9805 6.49322C63.8144 5.91247 64.8121 5.62209 65.9736 5.62209C67.15 5.62209 68.1515 5.91619 68.9779 6.50439C69.8044 7.08514 70.3553 7.87437 70.6308 8.87207H70.8095C71.1595 7.88926 71.7923 7.10375 72.7081 6.51555C73.6314 5.91991 74.7222 5.62209 75.9805 5.62209C77.5812 5.62209 78.8805 6.13211 79.8782 7.15215C80.8833 8.16474 81.3859 9.60174 81.3859 11.4631V23H76.6394V12.4013C76.6394 11.4482 76.3862 10.7335 75.8799 10.2569C75.3736 9.78043 74.7408 9.54217 73.9813 9.54217C73.1176 9.54217 72.4438 9.81766 71.9599 10.3686C71.4759 10.9122 71.2339 11.6306 71.2339 12.5241V23H66.6214V12.3007C66.6214 11.4594 66.3794 10.7893 65.8955 10.2904C65.4189 9.7916 64.7898 9.54217 64.008 9.54217C63.4794 9.54217 63.0029 9.67619 62.5785 9.94423C62.1615 10.2048 61.8302 10.5734 61.5845 11.0499C61.3388 11.519 61.2159 12.0699 61.2159 12.7028V23H56.4582Z" fill="#4B5563"/>
<path d="M79.988 23V0.127274H95.4002V4.11437H84.8238V9.56451H94.6073V13.5516H84.8238V19.0129H95.4449V23H79.988Z" fill="#3B82F6"/>
<path d="M115.149 5.84546L109.151 23H103.79L97.7931 5.84546H102.819L106.381 18.1194H106.56L110.112 5.84546H115.149Z" fill="#3B82F6"/>
<path d="M122.014 23.3239C120.92 23.3239 119.944 23.134 119.088 22.7543C118.232 22.3671 117.554 21.7975 117.056 21.0455C116.564 20.2861 116.319 19.3405 116.319 18.2088C116.319 17.2558 116.493 16.4554 116.843 15.8076C117.193 15.1598 117.67 14.6387 118.273 14.244C118.876 13.8494 119.561 13.5516 120.328 13.3506C121.102 13.1495 121.914 13.0081 122.763 12.9262C123.76 12.8219 124.564 12.7251 125.175 12.6358C125.786 12.539 126.229 12.3975 126.504 12.2114C126.78 12.0253 126.917 11.7498 126.917 11.3849V11.3179C126.917 10.6106 126.694 10.0634 126.247 9.67619C125.808 9.28902 125.182 9.09544 124.371 9.09544C123.515 9.09544 122.833 9.2853 122.327 9.66502C121.821 10.0373 121.486 10.5064 121.322 11.0722L116.922 10.7148C117.145 9.67247 117.584 8.77156 118.239 8.01211C118.895 7.24522 119.74 6.65702 120.775 6.24751C121.817 5.83056 123.023 5.62209 124.393 5.62209C125.346 5.62209 126.258 5.73377 127.129 5.95714C128.008 6.18051 128.786 6.52672 129.464 6.99579C130.149 7.46486 130.688 8.06795 131.083 8.80506C131.478 9.53473 131.675 10.4096 131.675 11.4296V23H127.163V20.6211H127.029C126.753 21.1572 126.385 21.63 125.923 22.0395C125.462 22.4416 124.907 22.758 124.259 22.9888C123.611 23.2122 122.863 23.3239 122.014 23.3239ZM123.377 20.0404C124.077 20.0404 124.695 19.9027 125.231 19.6272C125.767 19.3442 126.188 18.9645 126.493 18.488C126.798 18.0115 126.951 17.4717 126.951 16.8686V15.0482C126.802 15.1449 126.597 15.2343 126.336 15.3162C126.083 15.3907 125.797 15.4614 125.477 15.5284C125.156 15.588 124.836 15.6438 124.516 15.6959C124.196 15.7406 123.906 15.7815 123.645 15.8188C123.087 15.9007 122.599 16.031 122.182 16.2097C121.765 16.3884 121.441 16.6303 121.21 16.9356C120.979 17.2334 120.864 17.6057 120.864 18.0524C120.864 18.7002 121.099 19.1953 121.568 19.5378C122.044 19.8729 122.647 20.0404 123.377 20.0404Z" fill="#3B82F6"/>
<path d="M140.124 0.127274V23H135.366V0.127274H140.124Z" fill="#3B82F6"/>
</svg>
